# xmcd CD database file
#
# Track frame offsets:
#	150
#	1756
#	14250
#	42640
#	63842
#	77918
#	95944
#	111569
#	125166
#	135660
#	151963
#	169798
#	193557
#	208223
#	224886
#	265052
#
# Disc length: 3749 seconds
#
# Revision: 0
# Processed by: cddbd v1.5.1PL2 Copyright (c) Steve Scherf et al.
# Submitted via: CDex 1.51
#
DISCID=f20ea310
DTITLE=Various Artist - Ain't Nothin' But...Vol 3
DYEAR=2005
DGENRE=Blues
TTITLE0=The Late Big Lucky Carter - Radio Jingle
TTITLE1=The City Shakers - Messin' With The Kid
TTITLE2=Rollo Markee and The Tail Shakers - Blues Player
TTITLE3=Woodleg Odds - Starting Over
TTITLE4=Jimmy C and The Blues Dragons - Killing Floor
TTITLE5=Bob Hokum Band - Hooked
TTITLE6=The Incredible Blues Puppies - Another Kinda Love
TTITLE7=West Weston - Let Me Explain
TTITLE8=King David's Trio Royale - Sunshine
TTITLE9=The Bluespirits - Take A Little Walk With Me
TTITLE10=Gentleman Tim and The Contenders - Ain't That Fine
TTITLE11=The Ian Siegal Band - Sugar Rush
TTITLE12=Lerimiah Marques and The Blues Aces - I'm Ready
TTITLE13=The Big Blue - Guitar Hurricane
TTITLE14=Hucklebuck - You Just Bring Me Water (Live)
TTITLE15=Dr Blue and The Prescription - Mojo (Live)
EXTD=YEAR: 2005
EXTT0=
EXTT1=
EXTT2=
EXTT3=
EXTT4=
EXTT5=
EXTT6=
EXTT7=
EXTT8=
EXTT9=
EXTT10=
EXTT11=
EXTT12=
EXTT13=
EXTT14=
EXTT15=
PLAYORDER=
